<svg id="Layer_1" height="512" viewBox="0 0 512 512" width="512" xmlns="http://www.w3.org/2000/svg" data-name="Layer 1"><path d="m419.53 87.48h-262.31a9.671 9.671 0 0 0 -9.67 9.67v199.3a101.383 101.383 0 0 1 40.24 11.38l28.16 21.69a102.64 102.64 0 0 1 24.13 92.42h155.98l33.14-35.15v-289.64a9.671 9.671 0 0 0 -9.67-9.67z" fill="#e5f5fd"/><path d="m454.71 34.21h-332.68a19.342 19.342 0 0 0 -19.34 19.34v249.79a101.985 101.985 0 0 1 37.66-7.15c2.42 0 4.82.08 7.2.26v-199.3a9.671 9.671 0 0 1 9.67-9.67h262.31a9.671 9.671 0 0 1 9.67 9.67v264.64a11.7 11.7 0 0 1 -3.4 8.21l-48.54 48.54a11.706 11.706 0 0 1 -8.2 3.4h-128.98c-.54 2.31-1.16 4.6-1.85 6.85a102.451 102.451 0 0 1 -28.75 45.35l.99 1.06h244.24a19.335 19.335 0 0 0 19.34-19.34v-402.31a19.335 19.335 0 0 0 -19.34-19.34z" fill="#5f6a78"/><path d="m215.95 329.52a102.64 102.64 0 0 1 24.13 92.42c-.54 2.31-1.16 4.6-1.85 6.85l-2.38.24c-.24.03-.48.04-.71.05l-2.49.12a17.2 17.2 0 0 0 -15.06 10.33l-.64 1.45a13.572 13.572 0 0 1 -12.43 8.12h-10.56a4.889 4.889 0 0 1 -4.88-4.42l-.43-4.22a17.1 17.1 0 0 0 -7.8-12.76 6.042 6.042 0 0 1 -2.77-5.09v-4.23a8.271 8.271 0 0 1 2.8-6.2l18.04-15.94a17.768 17.768 0 0 0 5.23-18.44 18.106 18.106 0 0 0 -15.11-12.72l-1.83-.23a8.849 8.849 0 0 1 -5.61-2.97 5.026 5.026 0 0 1 -.61-5.78l3.78-6.46a129.8 129.8 0 0 1 16.42-22.24l4.08-5.69.22-2.14a104.62 104.62 0 0 1 10.46 9.95z" fill="#d8ff33"/><path d="m102.69 303.34a101.985 101.985 0 0 1 37.66-7.15c2.42 0 4.82.08 7.2.26a102.232 102.232 0 0 1 57.94 23.12l-.22 2.14-4.08 5.69a129.8 129.8 0 0 0 -16.42 22.24l-3.78 6.46a5.026 5.026 0 0 0 .61 5.78 8.849 8.849 0 0 0 5.61 2.97l1.83.23a18.106 18.106 0 0 1 15.11 12.72 17.768 17.768 0 0 1 -5.23 18.44l-18.04 15.94a8.271 8.271 0 0 0 -2.8 6.2v4.23a6.042 6.042 0 0 0 2.77 5.09 17.1 17.1 0 0 1 7.8 12.76l.43 4.22a4.889 4.889 0 0 0 4.88 4.42h10.56a13.572 13.572 0 0 0 12.43-8.12l.64-1.45a17.2 17.2 0 0 1 15.06-10.33l2.49-.12c.23-.01.47-.02.71-.05l2.38-.24a102.418 102.418 0 0 1 -200.28-30.19c0-2.45.09-4.89.26-7.3l1.27.08 1.4-.27a16.215 16.215 0 0 1 17.13 7.77 16.467 16.467 0 0 0 2.94 3.7l7.28 6.86a10.984 10.984 0 0 0 4.61 2.58l.85.23a14.8 14.8 0 0 1 10.33 10.29l3.91 14.08a13.594 13.594 0 0 0 2.32 4.68l11.82 15.5a14.95 14.95 0 0 1 2.86 6.61l3.22 19.29a2.826 2.826 0 0 0 .99 1.76 2.731 2.731 0 0 0 2.78.39 5.457 5.457 0 0 0 3.32-4.52 19.554 19.554 0 0 1 4.52-10.7l3.43-4.13a7.239 7.239 0 0 0 1.34-2.47l3.52-11.42a17.023 17.023 0 0 1 5.9-8.5l10.48-8.04a3.742 3.742 0 0 0 1.45-2.34 3.591 3.591 0 0 0 -.81-2.89l-6.97-8.21c-.42-.49-.82-.99-1.19-1.52l-5.33-7.43a15.456 15.456 0 0 0 -12.73-6.7 2.737 2.737 0 0 1 -1.45-.38l-10.89-6.54a10.585 10.585 0 0 0 -10.41-.25l-5.75 3.07a11.265 11.265 0 0 1 -14.85-3.9l-5.58-8.81a12.123 12.123 0 0 1 .21-13.29 13.638 13.638 0 0 1 13.08-5.91l8.37 1.06a7.524 7.524 0 0 0 7.47-3.58 13.219 13.219 0 0 1 13.1-6.47l3.66.47a7.46 7.46 0 0 0 6.81-2.83l3.22-4.18a10.9 10.9 0 0 0 .33-12.9l-6.95-10.02a32.173 32.173 0 0 0 -10.18-9.42 31.287 31.287 0 0 1 -3.06-2.04l-5.86-4.4-7.42-5.58-.89-1.67a100.6 100.6 0 0 1 10.88-5.07z" fill="#55d8d8"/><path d="m145.07 429.84a3.591 3.591 0 0 1 .81 2.89 3.742 3.742 0 0 1 -1.45 2.34l-10.48 8.04a17.023 17.023 0 0 0 -5.9 8.5l-3.52 11.42a7.239 7.239 0 0 1 -1.34 2.47l-3.43 4.13a19.554 19.554 0 0 0 -4.52 10.7 5.457 5.457 0 0 1 -3.32 4.52 2.731 2.731 0 0 1 -2.78-.39 2.826 2.826 0 0 1 -.99-1.76l-3.22-19.29a14.95 14.95 0 0 0 -2.86-6.61l-11.82-15.5a13.594 13.594 0 0 1 -2.32-4.68l-3.91-14.08a14.8 14.8 0 0 0 -10.33-10.29l-.85-.23a10.984 10.984 0 0 1 -4.61-2.58l-7.28-6.86a16.467 16.467 0 0 1 -2.94-3.7 16.215 16.215 0 0 0 -17.13-7.77l-1.4.27-1.27-.08a102.377 102.377 0 0 1 53.6-82.89l.89 1.67 7.42 5.58 5.86 4.4a31.287 31.287 0 0 0 3.06 2.04 32.173 32.173 0 0 1 10.18 9.42l6.95 10.02a10.9 10.9 0 0 1 -.33 12.9l-3.22 4.18a7.46 7.46 0 0 1 -6.81 2.83l-3.66-.47a13.219 13.219 0 0 0 -13.1 6.47 7.524 7.524 0 0 1 -7.47 3.58l-8.37-1.06a13.638 13.638 0 0 0 -13.08 5.91 12.123 12.123 0 0 0 -.21 13.29l5.58 8.81a11.265 11.265 0 0 0 14.85 3.9l5.75-3.07a10.585 10.585 0 0 1 10.41.25l10.89 6.54a2.737 2.737 0 0 0 1.45.38 15.456 15.456 0 0 1 12.73 6.7l5.33 7.43c.37.53.77 1.03 1.19 1.52z" fill="#d8ff33"/><path d="m360.79 226.09h28.17v119.2h-28.17z" fill="#73d88a"/><path d="m303.13 262.16h28.16v83.13h-28.16z" fill="#73d88a"/><path d="m245.46 299.19h28.16v46.1h-28.16z" fill="#73d88a"/><path d="m215.95 266.6v62.92a104.62 104.62 0 0 0 -10.46-9.95 102.2 102.2 0 0 0 -17.7-11.74v-41.23z" fill="#73d88a"/><path d="m323.19 63.22v-17.4a34.859 34.859 0 0 0 -1.98-11.61h-.01a34.817 34.817 0 0 0 -65.65 0h-.01a34.859 34.859 0 0 0 -1.98 11.61v17.4h-63.83v46.42h197.29v-46.42z" fill="#50a6ea"/><path d="m426.88 366.36 1.2.39a11.64 11.64 0 0 1 -2.28 3.25l-48.54 48.54a11.482 11.482 0 0 1 -4.46 2.77v-35.61a19.342 19.342 0 0 1 19.34-19.34z" fill="#a6b7d0"/><path d="m157.22 87.48a9.671 9.671 0 0 0 -9.67 9.67v199.3h30v-199.3a9.671 9.671 0 0 1 9.67-9.67z" fill="#a6b7d0"/><path d="m187.79 307.83a101.383 101.383 0 0 0 -40.24-11.38c-2.38-.18-4.78-.26-7.2-.26a101.985 101.985 0 0 0 -37.66 7.15 100.6 100.6 0 0 0 -10.88 5.07l.89 1.67 7.42 5.58 5.86 4.4a31.287 31.287 0 0 0 3.06 2.04l3.77-2.69a100.6 100.6 0 0 1 10.88-5.07 101.985 101.985 0 0 1 37.66-7.15c2.42 0 4.82.08 7.2.26a101.422 101.422 0 0 1 29.445 6.5 101.573 101.573 0 0 0 -10.205-6.12z" fill="#5ac5df"/><path d="m58.95 409.6c0-2.45.09-4.89.26-7.3l1.27.08.229-.044a16.473 16.473 0 0 1 -2.7-3.456 16.215 16.215 0 0 0 -17.13-7.77l-1.4.27-1.27-.08c-.17 2.41-.26 4.85-.26 7.3a102.432 102.432 0 0 0 65.756 95.641 102.29 102.29 0 0 1 -44.755-84.641z" fill="#5ac5df"/><path d="m108.6 321.825a31.174 31.174 0 0 1 -2.62-1.765l-5.86-4.4-7.42-5.58-.89-1.67a102.377 102.377 0 0 0 -53.6 82.89l1.27.08 1.4-.27a16.215 16.215 0 0 1 17.13 7.77 16.669 16.669 0 0 0 1.328 1.944 102.332 102.332 0 0 1 49.262-78.999z" fill="#9be147"/><g fill="#284268"><path d="m454.713 28h-129.522a40.806 40.806 0 0 0 -73.635 0h-129.522c-13.974 0-25.034 11.579-25.034 25.552v245.7a108.382 108.382 0 1 0 113.7 181.748h244.013a25.15 25.15 0 0 0 25.287-25.138v-402.31a25.5 25.5 0 0 0 -25.287-25.552zm-201.155 41c3.314 0 6.442-2.463 6.442-5.777v-17.408a28.5 28.5 0 1 1 57 0v17.408a5.978 5.978 0 0 0 6.188 5.777h57.812v35h-185v-35zm138.584 291c-13.974 0-25.142 11.729-25.142 25.7v30.3h-119.652a108.256 108.256 0 0 0 -25.348-88.628v-60.772c0-3.313-2.732-5.6-6.046-5.6h-28.163a5.491 5.491 0 0 0 -5.791 5.6v31.924a107.515 107.515 0 0 0 -28-7.469v-193.906c0-2.024 1.2-4.149 3.22-4.149h26.78v16.644c0 3.314 2.417 6.356 5.73 6.356h197.287a6.3 6.3 0 0 0 5.983-6.356v-16.644h26.526c2.024 0 3.474 2.125 3.474 4.149v262.851zm22.81 12-35.952 36.513v-22.813c0-7.356 5.785-13.7 13.142-13.7zm-205.066 4.059a24.12 24.12 0 0 0 -20.123-16.935l-1.817-.224a2.9 2.9 0 0 1 -1.339-.523l3.338-5.7a123.8 123.8 0 0 1 15.668-21.211 6.072 6.072 0 0 0 .459-.564l1.177-1.642a96.318 96.318 0 0 1 26.33 93.894l-1.2.054a23.17 23.17 0 0 0 -20.287 13.917l-.635 1.4a7.537 7.537 0 0 1 -6.94 4.483h-9.572l-.364-3.188a23.19 23.19 0 0 0 -10.581-17.208v-4.229a2.323 2.323 0 0 1 .812-1.71l18.061-15.937a23.8 23.8 0 0 0 7.013-24.677zm-15.886-71.631v-31.428h16v42.6a109.017 109.017 0 0 0 -16-11.172zm-85-250.876a13.279 13.279 0 0 1 13.034-13.552h125.919a44.283 44.283 0 0 0 .047 5.815v11.185h-58.27a5.972 5.972 0 0 0 -5.73 6.223v17.777h-26.78c-8.641 0-15.22 7.508-15.22 16.149v193.065c-.55-.008-1.1-.021-1.651-.021a108.053 108.053 0 0 0 -31.349 4.628zm-18.366 262.478 11.738 8.826a37.982 37.982 0 0 0 3.639 2.421 26.313 26.313 0 0 1 8.278 7.664l6.948 10.021a4.906 4.906 0 0 1 -.146 5.811l-3.223 4.182a1.444 1.444 0 0 1 -1.3.54l-3.658-.468a19.2 19.2 0 0 0 -19.047 9.4 1.554 1.554 0 0 1 -1.53.646l-8.361-1.062a19.617 19.617 0 0 0 -18.815 8.5 18.119 18.119 0 0 0 -.306 19.863l5.576 8.805a17.106 17.106 0 0 0 5.625 5.506c-.259-.082-.521-.159-.784-.231l-.854-.233a4.927 4.927 0 0 1 -2.073-1.161l-7.281-6.854a10.5 10.5 0 0 1 -1.872-2.353 22.277 22.277 0 0 0 -18.255-11.035 96.6 96.6 0 0 1 45.701-68.788zm-46.689 82.57c0-.6.012-1.192.023-1.786a10.252 10.252 0 0 1 8.858 5.1 22.5 22.5 0 0 0 4.011 5.041l7.282 6.854a16.958 16.958 0 0 0 7.138 4l.852.233a8.789 8.789 0 0 1 6.131 6.105l3.9 14.083a19.663 19.663 0 0 0 3.333 6.711l11.827 15.502a8.977 8.977 0 0 1 1.71 3.952l3.215 19.285a8.9 8.9 0 0 0 1.951 4.272 96.553 96.553 0 0 1 -60.231-89.352zm66.906 63.825a21 21 0 0 0 -4.006-9.256l-11.827-15.51a7.764 7.764 0 0 1 -1.31-2.639l-3.9-14.083a20.852 20.852 0 0 0 -9.67-12.448 17.253 17.253 0 0 0 13.054-1.317l5.738-3.072a4.57 4.57 0 0 1 4.491.109l10.9 6.539a8.647 8.647 0 0 0 4.688 1.233 9.526 9.526 0 0 1 7.695 4.2l5.33 7.429c.469.655.972 1.3 1.492 1.91l5.328 6.268-8.554 6.567a22.919 22.919 0 0 0 -7.982 11.483l-3.518 11.422a1.165 1.165 0 0 1 -.221.408l-3.427 4.122a26.645 26.645 0 0 0 -3 4.434zm29.5 32.572a96.081 96.081 0 0 1 -27.818-4.1 8.635 8.635 0 0 0 1.71-.515 11.419 11.419 0 0 0 6.97-9.515 13.525 13.525 0 0 1 3.164-7.408l3.427-4.121a13.124 13.124 0 0 0 2.46-4.545l3.521-11.423a10.973 10.973 0 0 1 3.823-5.5l10.477-8.045a9.681 9.681 0 0 0 3.717-6.148 9.574 9.574 0 0 0 -2.159-7.726l-6.975-8.207c-.309-.362-.6-.743-.884-1.131l-5.33-7.43a21.472 21.472 0 0 0 -16.754-9.203l-10.109-6.065a16.632 16.632 0 0 0 -16.332-.4l-5.738 3.085a5.3 5.3 0 0 1 -6.955-1.83l-5.577-8.806a6.124 6.124 0 0 1 .1-6.712 7.678 7.678 0 0 1 7.365-3.33l8.365 1.063a13.476 13.476 0 0 0 13.414-6.516 7.213 7.213 0 0 1 7.155-3.533l3.659.467a13.471 13.471 0 0 0 12.321-5.117l3.232-4.186a16.865 16.865 0 0 0 .5-19.975l-6.95-10.025a38.406 38.406 0 0 0 -12.079-11.185 26.224 26.224 0 0 1 -2.493-1.657l-7.078-5.323a96.26 96.26 0 0 1 95.584 11.5l-1.556 2.172a135.745 135.745 0 0 0 -16.94 23l-3.812 6.516a11.016 11.016 0 0 0 1.307 12.7 14.9 14.9 0 0 0 9.4 4.979l1.821.224a12.12 12.12 0 0 1 10.111 8.506 11.769 11.769 0 0 1 -3.464 12.2l-18.082 15.937a14.33 14.33 0 0 0 -4.867 10.7v4.229a12.042 12.042 0 0 0 5.56 10.129 11.189 11.189 0 0 1 5.1 8.314l.433 4.172a10.839 10.839 0 0 0 10.862 9.787h10.562a19.536 19.536 0 0 0 17.928-11.659l.635-1.422a11.2 11.2 0 0 1 6.106-5.9 96.559 96.559 0 0 1 -88.839 58.975zm327.649-39.135a13.137 13.137 0 0 1 -13.287 13.138h-232.005a108.285 108.285 0 0 0 21.99-41l128.1-.048a5.988 5.988 0 0 0 4.5-2.052l52.639-51.655a17.4 17.4 0 0 0 5.063-12.451v-264.645c0-8.641-6.833-16.149-15.474-16.149h-26.526v-17.777a6.181 6.181 0 0 0 -5.983-6.223h-58.017v-11.185a45.294 45.294 0 0 0 -.206-5.815h125.919a13.491 13.491 0 0 1 13.287 13.552z"/><path d="m389 220h-28a6 6 0 0 0 -6 6v119a6 6 0 0 0 6 6h28a6 6 0 0 0 6-6v-119a6 6 0 0 0 -6-6zm-6 119h-16v-107h16z"/><path d="m331 256h-28a6 6 0 0 0 -6 6v83a6 6 0 0 0 6 6h28a6 6 0 0 0 6-6v-83a6 6 0 0 0 -6-6zm-6 83h-16v-71h16z"/><path d="m273 293h-28a6 6 0 0 0 -6 6v46a6 6 0 0 0 6 6h28a6 6 0 0 0 6-6v-46a6 6 0 0 0 -6-6zm-5 46h-17v-34h17z"/><path d="m242.589 248.332a6 6 0 0 0 -1.5-8.353l-21-14.625a6 6 0 0 0 -6.857 9.848l21 14.625a6 6 0 0 0 8.352-1.5z"/><path d="m308.2 224.317a6 6 0 0 0 -8.455-.718l-23.182 19.551a6 6 0 0 0 7.737 9.173l23.181-19.551a6 6 0 0 0 .719-8.455z"/><path d="m365.792 175.8a6 6 0 0 0 -8.478-.369l-23.05 21.127a6 6 0 1 0 8.108 8.846l23.05-21.127a6 6 0 0 0 .37-8.477z"/><path d="m185.97 147h67.171a6 6 0 1 0 0-12h-67.171a6 6 0 0 0 0 12z"/><path d="m212.579 172a6 6 0 0 0 6 6h75.521a6 6 0 0 0 0-12h-75.521a6 6 0 0 0 -6 6z"/><path d="m202.786 172a6 6 0 0 0 -6-6h-10.816a6 6 0 0 0 0 12h10.816a6 6 0 0 0 6-6z"/><circle cx="200.702" cy="217.087" r="11.12"/><path d="m248.976 253.952a11.12 11.12 0 1 0 11.12-11.12 11.132 11.132 0 0 0 -11.12 11.12z"/><circle cx="320.514" cy="215.039" r="11.12"/><circle cx="377.86" cy="164.861" r="11.12"/></g></svg>